<svg width="1178" height="226" viewBox="0 0 1178 226" fill="none" xmlns="http://www.w3.org/2000/svg">
<g clip-path="url(#clip0_13_97)">
<path d="M1116.8 217.84H270.23C262.13 217.84 255.55 211.27 255.55 203.16V141.71C255.55 133.61 262.12 127.03 270.23 127.03H1116.8C1124.9 127.03 1131.48 133.6 1131.48 141.71V203.16C1131.48 211.27 1124.91 217.84 1116.8 217.84Z" fill="white"/>
<path d="M58.1 145.39H63.89L76.64 192.18L105.67 145.39H111.46L101.91 199.38H96.43L104.02 156.34L77.26 199.38H73.27L61.53 156.42L54.02 199.38H48.54L58.1 145.39Z" fill="white"/>
<path d="M132.82 200C120.69 200 113.26 191.55 115.68 178.01C118.11 164.39 128.28 156.02 140.56 156.02C153.08 156.02 159.18 164.94 157.31 175.74C157 177.38 156.76 178.48 156.37 179.97H120.92C119.51 190.06 125.61 195.38 133.6 195.38C140.88 195.38 146.59 191.55 149.01 185.83H154.88C151.52 193.9 143.54 200 132.82 200ZM121.71 175.9H151.68C153.71 165.73 147.45 160.72 139.55 160.72C131.72 160.72 123.9 165.81 121.71 175.9Z" fill="white"/>
<path d="M181.48 200C169.35 200 161.92 191.55 164.34 178.01C166.77 164.39 176.94 156.02 189.22 156.02C201.74 156.02 207.84 164.94 205.96 175.74C205.65 177.38 205.41 178.48 205.02 179.97H169.57C168.16 190.06 174.26 195.38 182.25 195.38C189.53 195.38 195.24 191.55 197.66 185.83H203.53C200.18 193.9 192.2 200 181.48 200ZM170.37 175.9H200.34C202.37 165.73 196.11 160.72 188.21 160.72C180.39 160.72 172.56 165.81 170.37 175.9Z" fill="white"/>
<path d="M220.05 161.27H214.1L214.96 156.65H220.91L222.79 145.93H228.27L226.39 156.65H238.21L237.35 161.27H225.53L220.84 187.8C219.98 193.04 221.47 194.69 226.47 194.69H231.48L230.62 199.39H224.75C217.32 199.39 213.87 196.34 215.36 187.81L220.05 161.27Z" fill="white"/>
<path d="M315.853 169.895C315.332 173.077 314.106 175.998 312.176 178.658C310.246 181.266 307.612 183.379 304.274 184.996C300.988 186.613 297.102 187.421 292.616 187.421H284.323L280.802 207.137H267.423L277.125 152.213H298.797C304.534 152.213 308.864 153.491 311.785 156.047C314.706 158.551 316.166 161.967 316.166 166.296C316.166 167.6 316.062 168.8 315.853 169.895ZM293.398 176.937C298.406 176.937 301.353 174.59 302.239 169.895C302.344 169.061 302.396 168.461 302.396 168.096C302.396 166.427 301.848 165.149 300.753 164.262C299.71 163.323 298.093 162.854 295.902 162.854H288.626L286.2 176.937H293.398ZM343.474 162.854C349.107 162.854 353.566 164.393 356.852 167.47C360.191 170.495 361.86 174.642 361.86 179.91C361.86 181.631 361.729 183.17 361.469 184.526C361.26 185.726 360.947 187.004 360.53 188.36H330.251C330.199 188.673 330.173 189.168 330.173 189.846C330.173 192.141 330.799 193.889 332.051 195.089C333.302 196.288 334.971 196.888 337.058 196.888C340.396 196.888 342.952 195.48 344.725 192.663H358.965C357.087 197.097 354.036 200.722 349.811 203.538C345.586 206.355 340.839 207.763 335.571 207.763C329.938 207.763 325.426 206.199 322.036 203.069C318.698 199.939 317.029 195.688 317.029 190.316C317.029 188.699 317.185 187.03 317.498 185.309C318.28 180.771 319.897 176.807 322.349 173.416C324.8 170.026 327.852 167.418 331.503 165.592C335.154 163.767 339.144 162.854 343.474 162.854ZM348.324 181.553C348.429 180.823 348.481 180.327 348.481 180.067C348.481 177.98 347.829 176.389 346.525 175.294C345.221 174.146 343.5 173.573 341.361 173.573C339.066 173.573 337.032 174.277 335.258 175.685C333.537 177.041 332.285 178.997 331.503 181.553H348.324ZM384.096 171.382C386.131 168.774 388.452 166.74 391.06 165.279C393.72 163.767 396.484 163.01 399.353 163.01L396.849 177.172H393.172C389.834 177.172 387.2 177.902 385.27 179.362C383.34 180.771 382.062 183.274 381.436 186.873L377.837 207.137H364.458L372.126 163.48H385.505L384.096 171.382ZM428.437 157.221C425.882 157.064 424.004 157.429 422.804 158.316C421.657 159.203 420.874 160.794 420.457 163.089L420.379 163.48H427.577L425.621 174.59H418.423L412.711 207.137H399.254L404.965 174.59H400.115L402.071 163.48H406.921L407.156 162.228C408.147 156.855 410.416 152.787 413.963 150.023C417.562 147.206 422.335 145.798 428.281 145.798C429.22 145.798 429.924 145.824 430.393 145.876L428.437 157.221ZM453.345 162.854C458.978 162.854 463.438 164.393 466.724 167.47C470.062 170.495 471.731 174.642 471.731 179.91C471.731 181.631 471.601 183.17 471.34 184.526C471.131 185.726 470.819 187.004 470.401 188.36H440.123C440.07 188.673 440.044 189.168 440.044 189.846C440.044 192.141 440.67 193.889 441.922 195.089C443.174 196.288 444.843 196.888 446.929 196.888C450.268 196.888 452.823 195.48 454.597 192.663H468.836C466.959 197.097 463.907 200.722 459.682 203.538C455.457 206.355 450.711 207.763 445.443 207.763C439.81 207.763 435.298 206.199 431.907 203.069C428.569 199.939 426.9 195.688 426.9 190.316C426.9 188.699 427.057 187.03 427.37 185.309C428.152 180.771 429.769 176.807 432.22 173.416C434.672 170.026 437.723 167.418 441.374 165.592C445.026 163.767 449.016 162.854 453.345 162.854ZM458.196 181.553C458.3 180.823 458.352 180.327 458.352 180.067C458.352 177.98 457.7 176.389 456.396 175.294C455.092 174.146 453.371 173.573 451.233 173.573C448.938 173.573 446.903 174.277 445.13 175.685C443.409 177.041 442.157 178.997 441.374 181.553H458.196ZM475.582 185.309C476.364 180.771 477.981 176.807 480.432 173.416C482.884 170.026 485.909 167.418 489.508 165.592C493.159 163.767 497.123 162.854 501.401 162.854C506.877 162.854 511.207 164.288 514.388 167.157C517.57 170.026 519.265 174.068 519.474 179.284H505.234C504.661 175.946 502.626 174.277 499.132 174.277C496.68 174.277 494.568 175.242 492.794 177.172C491.021 179.049 489.821 181.762 489.195 185.309C488.987 186.404 488.882 187.551 488.882 188.751C488.882 191.203 489.456 193.08 490.604 194.384C491.751 195.688 493.316 196.34 495.298 196.34C498.74 196.34 501.322 194.671 503.044 191.333H517.361C515.327 196.445 512.198 200.461 507.973 203.382C503.748 206.303 498.923 207.763 493.498 207.763C487.865 207.763 483.379 206.225 480.041 203.147C476.755 200.018 475.112 195.767 475.112 190.394C475.112 188.777 475.269 187.082 475.582 185.309ZM539.853 192.115C539.801 192.376 539.775 192.715 539.775 193.133C539.775 194.071 540.035 194.749 540.557 195.167C541.131 195.584 542.044 195.793 543.295 195.793H548.068L546.034 207.137H539.227C530.464 207.137 526.083 203.46 526.083 196.106C526.083 195.01 526.213 193.628 526.474 191.959L529.603 174.59H524.283L526.239 163.48H531.559L533.437 152.839H546.816L544.938 163.48H553.701L551.745 174.59H542.982L539.853 192.115ZM592.797 162.776L590.841 174.199H608.758L606.959 184.291H589.042L586.851 196.575H607.115L605.237 207.137H571.594L581.296 152.213H614.939L613.061 162.776H592.797ZM643.576 185.543L654.764 207.137H639.742L633.483 195.089L624.329 207.137H609.855L628.163 184.839L617.131 163.48H632.153L638.412 175.607L647.566 163.48H662.04L643.576 185.543ZM687.147 162.854C692.78 162.854 697.24 164.393 700.526 167.47C703.864 170.495 705.533 174.642 705.533 179.91C705.533 181.631 705.403 183.17 705.142 184.526C704.933 185.726 704.62 187.004 704.203 188.36H673.924C673.872 188.673 673.846 189.168 673.846 189.846C673.846 192.141 674.472 193.889 675.724 195.089C676.976 196.288 678.645 196.888 680.731 196.888C684.069 196.888 686.625 195.48 688.398 192.663H702.638C700.76 197.097 697.709 200.722 693.484 203.538C689.259 206.355 684.513 207.763 679.244 207.763C673.611 207.763 669.099 206.199 665.709 203.069C662.371 199.939 660.702 195.688 660.702 190.316C660.702 188.699 660.858 187.03 661.171 185.309C661.954 180.771 663.57 176.807 666.022 173.416C668.473 170.026 671.525 167.418 675.176 165.592C678.827 163.767 682.817 162.854 687.147 162.854ZM691.997 181.553C692.102 180.823 692.154 180.327 692.154 180.067C692.154 177.98 691.502 176.389 690.198 175.294C688.894 174.146 687.173 173.573 685.034 173.573C682.739 173.573 680.705 174.277 678.931 175.685C677.21 177.041 675.958 178.997 675.176 181.553H691.997ZM709.383 185.309C710.166 180.771 711.783 176.807 714.234 173.416C716.686 170.026 719.711 167.418 723.31 165.592C726.961 163.767 730.925 162.854 735.202 162.854C740.679 162.854 745.008 164.288 748.19 167.157C751.372 170.026 753.067 174.068 753.276 179.284H739.036C738.462 175.946 736.428 174.277 732.933 174.277C730.482 174.277 728.369 175.242 726.596 177.172C724.822 179.049 723.623 181.762 722.997 185.309C722.788 186.404 722.684 187.551 722.684 188.751C722.684 191.203 723.258 193.08 724.405 194.384C725.553 195.688 727.117 196.34 729.1 196.34C732.542 196.34 735.124 194.671 736.845 191.333H751.163C749.129 196.445 745.999 200.461 741.774 203.382C737.549 206.303 732.725 207.763 727.3 207.763C721.667 207.763 717.181 206.225 713.843 203.147C710.557 200.018 708.914 195.767 708.914 190.394C708.914 188.777 709.07 187.082 709.383 185.309ZM806.28 163.48L798.613 207.137H785.234L786.251 201.191C784.53 203.121 782.417 204.686 779.914 205.886C777.462 207.033 774.828 207.607 772.011 207.607C767.63 207.607 764.187 206.381 761.684 203.93C759.18 201.426 757.928 197.957 757.928 193.524C757.928 191.855 758.059 190.342 758.32 188.986L762.857 163.48H776.158L772.011 187.186C771.855 188.021 771.777 188.829 771.777 189.612C771.777 191.802 772.377 193.498 773.576 194.697C774.828 195.845 776.549 196.419 778.74 196.419C781.244 196.419 783.356 195.688 785.077 194.228C786.851 192.715 788.024 190.577 788.598 187.812L792.901 163.48H806.28ZM826.374 192.115C826.322 192.376 826.296 192.715 826.296 193.133C826.296 194.071 826.557 194.749 827.079 195.167C827.652 195.584 828.565 195.793 829.817 195.793H834.59L832.555 207.137H825.749C816.986 207.137 812.604 203.46 812.604 196.106C812.604 195.01 812.735 193.628 812.995 191.959L816.125 174.59H810.805L812.761 163.48H818.081L819.959 152.839H833.338L831.46 163.48H840.223L838.267 174.59H829.504L826.374 192.115ZM855.264 158.942C853.178 158.942 851.509 158.394 850.257 157.299C849.057 156.151 848.458 154.717 848.458 152.996C848.458 150.648 849.37 148.64 851.196 146.971C853.022 145.302 855.238 144.468 857.846 144.468C859.933 144.468 861.576 145.041 862.775 146.189C863.975 147.284 864.575 148.719 864.575 150.492C864.575 152.787 863.662 154.769 861.836 156.438C860.011 158.107 857.82 158.942 855.264 158.942ZM861.054 163.48L853.387 207.137H840.008L847.675 163.48H861.054ZM883.033 207.763C879.278 207.763 875.94 207.007 873.019 205.494C870.098 203.982 867.829 201.843 866.212 199.079C864.647 196.314 863.865 193.106 863.865 189.455C863.865 184.5 865.038 179.988 867.385 175.92C869.733 171.851 872.967 168.67 877.087 166.375C881.208 164.027 885.798 162.854 890.857 162.854C894.613 162.854 897.951 163.636 900.872 165.201C903.845 166.714 906.14 168.852 907.757 171.617C909.374 174.381 910.182 177.589 910.182 181.24C910.182 186.247 908.983 190.785 906.583 194.854C904.236 198.87 900.976 202.026 896.803 204.321C892.683 206.616 888.093 207.763 883.033 207.763ZM884.911 196.262C887.102 196.262 889.058 195.61 890.779 194.306C892.552 192.95 893.909 191.229 894.847 189.142C895.839 187.004 896.334 184.787 896.334 182.492C896.334 179.884 895.63 177.876 894.222 176.468C892.813 175.059 891.04 174.355 888.901 174.355C886.658 174.355 884.676 175.033 882.955 176.389C881.286 177.693 879.982 179.415 879.043 181.553C878.104 183.692 877.635 185.934 877.635 188.282C877.635 190.837 878.313 192.82 879.669 194.228C881.025 195.584 882.773 196.262 884.911 196.262ZM947.246 163.01C951.627 163.01 955.07 164.236 957.574 166.688C960.077 169.139 961.329 172.556 961.329 176.937C961.329 178.397 961.173 179.962 960.86 181.631L956.322 207.137H943.021L947.246 183.431C947.402 182.544 947.481 181.762 947.481 181.084C947.481 178.893 946.855 177.198 945.603 175.998C944.403 174.798 942.708 174.199 940.517 174.199C937.909 174.199 935.719 175.007 933.945 176.624C932.172 178.241 931.024 180.51 930.503 183.431V183.04L926.278 207.137H912.899L920.566 163.48H933.945L932.928 169.348C934.649 167.418 936.736 165.879 939.187 164.732C941.691 163.584 944.377 163.01 947.246 163.01ZM983.77 207.763C980.328 207.763 977.224 207.216 974.46 206.12C971.748 205.025 969.609 203.512 968.044 201.582C966.479 199.6 965.697 197.331 965.697 194.776C965.697 194.41 965.749 193.758 965.853 192.82H978.763C978.659 194.437 979.128 195.741 980.171 196.732C981.267 197.67 982.805 198.14 984.787 198.14C986.457 198.14 987.839 197.827 988.934 197.201C990.029 196.575 990.577 195.688 990.577 194.541C990.577 193.445 989.977 192.585 988.778 191.959C987.63 191.281 985.7 190.472 982.988 189.534C980.171 188.595 977.798 187.682 975.868 186.795C973.99 185.856 972.373 184.526 971.017 182.805C969.661 181.084 968.983 178.919 968.983 176.311C968.983 173.755 969.739 171.46 971.252 169.426C972.765 167.34 974.877 165.723 977.589 164.575C980.354 163.428 983.536 162.854 987.135 162.854C990.734 162.854 993.863 163.454 996.523 164.653C999.183 165.801 1001.24 167.418 1002.7 169.504C1004.16 171.591 1004.89 173.938 1004.89 176.546L1004.82 177.719H992.69C992.794 176.155 992.325 174.903 991.281 173.964C990.238 173.025 988.752 172.556 986.822 172.556C985.309 172.556 984.057 172.868 983.066 173.494C982.127 174.12 981.658 174.981 981.658 176.076C981.658 177.224 982.284 178.189 983.536 178.971C984.84 179.701 986.848 180.536 989.56 181.475C992.377 182.414 994.698 183.353 996.523 184.291C998.401 185.178 999.992 186.456 1001.3 188.125C1002.65 189.742 1003.33 191.776 1003.33 194.228C1003.33 197.044 1002.47 199.47 1000.75 201.504C999.079 203.538 996.758 205.103 993.785 206.199C990.864 207.242 987.526 207.763 983.77 207.763Z" fill="white"/>
<path d="M292.62 179.66H284.33L280.81 199.38H267.43L277.13 144.45H298.8C312.26 144.45 317.66 152.04 315.86 162.13C314.29 171.21 306.62 179.66 292.62 179.66ZM293.4 169.17C298.8 169.17 301.46 166.35 302.24 162.13C303.02 157.91 301.22 155.09 295.9 155.09H288.62L286.2 169.17H293.4Z" fill="url(#paint0_linear_13_97)"/>
<path d="M357.71 155.01H337.44L335.48 166.43H353.4L351.6 176.52H333.68L331.49 188.8H351.76L349.88 199.36H316.23L325.93 144.43H359.58L357.71 155.01Z" fill="url(#paint1_linear_13_97)"/>
<path d="M390.73 144.45C404.19 144.45 409.59 152.2 407.87 161.74C406.7 168.63 401.77 175.12 392.85 177.62L401.69 199.37H386.59L378.84 178.63H375.63L371.95 199.37H358.57L368.27 144.44H390.73V144.45ZM387.99 155.4H379.7L377.27 169.17H385.56C390.57 169.17 393.38 166.59 394.17 162.28C394.96 158.14 393 155.4 387.99 155.4Z" fill="url(#paint2_linear_13_97)"/>
<path d="M419.28 144.45H455.04L453.16 155.01H430.78L428.75 166.83H445.5L443.62 177H426.87L422.96 199.38H409.58L419.28 144.45Z" fill="url(#paint3_linear_13_97)"/>
<path d="M493.85 155.01H473.58L471.62 166.43H489.54L487.74 176.52H469.82L467.63 188.8H487.9L486.02 199.36H452.37L462.07 144.43H495.72L493.85 155.01Z" fill="url(#paint4_linear_13_97)"/>
<path d="M529.84 143.82C542.91 143.82 551.51 151.17 552.53 163.07H537.82C536.41 158.53 532.66 156.18 527.49 156.18C519.27 156.18 512.62 162.28 510.98 171.83C509.26 181.38 513.8 187.56 522.01 187.56C527.1 187.56 531.71 185.14 534.76 180.6H549.47C544.23 192.49 533.04 199.77 519.97 199.77C503.77 199.77 494.46 188.27 497.36 171.84C500.26 155.4 513.64 143.82 529.84 143.82Z" fill="url(#paint5_linear_13_97)"/>
<path d="M561.05 144.45H603.54L601.74 155.01H587.11L579.28 199.38H565.9L573.73 155.01H559.18L561.05 144.45Z" fill="url(#paint6_linear_13_97)"/>
<path d="M660.1 155.01H639.83L637.87 166.43H655.79L653.99 176.52H636.07L633.88 188.8H654.15L652.27 199.36H618.62L628.32 144.43H661.97L660.1 155.01Z" fill="url(#paint7_linear_13_97)"/>
<path d="M686.39 182.55L673.56 199.37H658.38L680.92 171.44L667.7 144.44H683.27L691.41 161.03L704.01 144.44H719.19L696.81 172.14L710.19 199.37H694.62L686.39 182.55Z" fill="url(#paint8_linear_13_97)"/>
<path d="M758.37 155.01H738.1L736.14 166.43H754.06L752.26 176.52H734.34L732.15 188.8H752.42L750.54 199.36H716.9L726.6 144.43H760.25L758.37 155.01Z" fill="url(#paint9_linear_13_97)"/>
<path d="M794.36 143.82C807.43 143.82 816.03 151.17 817.05 163.07H802.34C800.93 158.53 797.18 156.18 792.01 156.18C783.79 156.18 777.14 162.28 775.5 171.83C773.78 181.38 778.32 187.56 786.53 187.56C791.62 187.56 796.23 185.14 799.28 180.6H814C808.76 192.49 797.57 199.77 784.5 199.77C768.3 199.77 758.99 188.27 761.89 171.84C764.78 155.4 778.16 143.82 794.36 143.82Z" fill="url(#paint10_linear_13_97)"/>
<path d="M828.31 144.45H841.69L835.9 177.24C834.73 183.73 837.31 187.49 843.65 187.49C849.99 187.49 854.06 183.73 855.15 177.24L860.94 144.45H874.32L868.53 177.24C865.79 192.66 854.21 199.93 841.3 199.93C828.62 199.93 819.86 192.42 822.6 177.24L828.31 144.45Z" fill="url(#paint11_linear_13_97)"/>
<path d="M880.73 144.45H923.22L921.42 155.01H906.79L898.96 199.38H885.58L893.4 155.01H878.85L880.73 144.45Z" fill="url(#paint12_linear_13_97)"/>
<path d="M929.94 144.45H943.32L933.62 199.38H920.24L929.94 144.45Z" fill="url(#paint13_linear_13_97)"/>
<path d="M969.46 199.92C955.38 199.92 946.14 190.53 946.14 176.84C946.14 157.36 959.6 143.66 978.61 143.66C992.93 143.66 1002.08 152.89 1002.08 166.51C1002.09 186 988.71 199.92 969.46 199.92ZM971.49 187.56C982.13 187.56 988.78 178.41 988.78 168C988.78 160.57 984.48 155.95 976.89 155.95C966.17 155.95 959.52 164.95 959.52 175.43C959.52 182.87 963.75 187.56 971.49 187.56Z" fill="url(#paint14_linear_13_97)"/>
<path d="M1063.66 144.45L1053.96 199.38H1040.58L1024.23 165.5L1018.21 199.38H1004.83L1014.53 144.45H1027.91L1044.26 178.49L1050.29 144.45H1063.66Z" fill="url(#paint15_linear_13_97)"/>
<path d="M1085.49 199.92C1073.21 199.92 1064.21 194.13 1065.54 182.94H1079.47C1079.16 186.77 1081.35 189.36 1085.89 189.36C1089.8 189.36 1092.46 187.64 1092.46 184.27C1092.46 175.43 1068.99 177.54 1068.83 161.27C1068.67 150.16 1077.75 143.66 1090.19 143.66C1102.24 143.66 1110.38 149.92 1109.36 160.09H1095.12C1095.59 156.65 1093.48 154.22 1089.49 154.22C1085.73 154.22 1083.15 156.18 1083.15 159.31C1083.15 167.76 1106.86 166.9 1106.86 183.1C1106.85 192.8 1098.71 199.92 1085.49 199.92Z" fill="url(#paint16_linear_13_97)"/>
<path d="M158.02 47.13H163.97L167.96 94.78L190.42 47.13H196.6L201.69 94.94L222.66 47.13H228.61L203.41 101.82H197.31L191.83 55.34L169.53 101.82L163.5 101.9L158.02 47.13Z" fill="white"/>
<path d="M237.51 43.92H242.99L239 66.38C242.68 61.14 248.78 58.32 255.28 58.32C264.75 58.32 271.32 64.27 269.13 76.79L264.67 101.83H259.27L263.57 77.42C265.21 67.95 260.99 63.1 253.16 63.1C245.18 63.1 238.68 68.11 236.88 78.52V78.44L232.73 101.84H227.25L237.51 43.92Z" fill="white"/>
<path d="M295.18 102.45C283.05 102.45 275.62 94 278.04 80.46C280.47 66.84 290.64 58.47 302.92 58.47C315.44 58.47 321.54 67.39 319.66 78.19C319.35 79.83 319.11 80.93 318.72 82.41H283.27C281.86 92.5 287.96 97.83 295.95 97.83C303.23 97.83 308.94 94 311.36 88.28H317.23C313.88 96.35 305.9 102.45 295.18 102.45ZM284.07 78.35H314.04C316.07 68.18 309.81 63.17 301.91 63.17C294.08 63.17 286.26 68.26 284.07 78.35Z" fill="white"/>
<path d="M361.76 77.41C363.4 67.94 359.18 63.09 351.35 63.09C343.37 63.09 336.87 68.1 335.07 78.51V78.28L330.92 101.83H325.44L332.95 59.11H338.43L337.1 66.47C340.78 61.15 346.8 58.33 353.22 58.33C362.84 58.33 369.5 64.28 367.3 76.8L362.84 101.84H357.44L361.76 77.41Z" fill="white"/>
<path d="M422.45 104.37C421.16 103.85 419.84 103.29 418.51 102.69C417.17 102.09 415.93 101.2 414.76 100.04C413.6 98.88 412.58 97.26 411.72 95.19C410.86 92.69 410.28 90.24 409.98 87.83C409.68 85.42 409.57 82.62 409.66 79.43C409.66 74.95 409.98 71.05 410.63 67.74C411.28 64.43 412.29 61.04 413.67 57.6C413.84 57.34 414.16 56.59 414.64 55.34C415.11 54.09 415.67 52.74 416.32 51.27C416.97 49.81 417.46 48.69 417.81 47.91C418.5 46.45 419.56 44.49 420.98 42.03C422.4 39.57 423.93 37.19 425.57 34.86C428.07 31.16 430.13 28.23 431.77 26.07C433.4 23.92 434.96 22.11 436.42 20.64C437.88 19.18 439.54 17.78 441.39 16.44C443.24 15.11 445.63 13.45 448.56 11.47C450.45 10.09 452.54 9.36001 454.83 9.27001C457.11 9.19001 459.24 9.68001 461.23 10.76C463.21 11.84 464.67 13.41 465.62 15.48C466.57 17.29 467.04 19.47 467.04 22C467.04 24.54 466.65 27.21 465.88 30.01C465.1 32.81 464.03 35.46 462.65 37.96C461.27 40.46 459.68 42.53 457.87 44.16C456.75 45.19 455.74 45.58 454.83 45.32C453.93 45.06 452.87 44.37 451.66 43.25C450.89 41.79 450.48 40.92 450.43 40.67C450.39 40.41 450.54 40.24 450.88 40.15C451.4 39.55 452.09 38.51 452.95 37.05C453.81 35.59 454.67 34.01 455.53 32.33C456.39 30.65 456.99 29.29 457.34 28.26C458.03 24.64 458.5 22.08 458.76 20.57C459.02 19.06 458.76 17.92 457.98 17.15C457.64 16.81 457.14 16.68 456.49 16.76C455.84 16.85 454.79 17.28 453.32 18.05C451.34 18.91 448.75 20.83 445.57 23.8C442.38 26.77 439.45 30.07 436.78 33.68C433.33 38.25 430.45 42.29 428.12 45.82C425.79 49.35 424.03 52.97 422.82 56.67C422.65 57.02 422.17 58.14 421.4 60.03C421.48 60.38 421.36 61.22 421.01 62.55C420.66 63.89 420.28 65.03 419.85 65.97C418.9 69.93 418.34 74.05 418.17 78.31C418 82.57 418.24 86.34 418.88 89.61C419.53 92.88 420.5 95.17 421.79 96.46C422.91 97.24 424.44 97.49 426.38 97.24C428.32 96.98 430.53 96.38 433.03 95.43C435.53 94.48 438.07 93.45 440.65 92.33C442.72 91.47 444.61 90.52 446.33 89.49C448.05 88.46 449.34 87.55 450.21 86.78C450.9 86.26 451.78 85.73 452.86 85.16C453.94 84.6 454.86 84.32 455.64 84.32C456.85 83.89 457.53 83.72 457.71 83.8C457.88 83.89 457.97 84.27 457.97 84.96C457.97 86.17 457.3 87.5 455.97 88.97C454.63 90.44 452.93 91.77 450.87 92.97C450.18 93.66 449.28 94.39 448.16 95.17C447.04 95.95 445.88 96.55 444.67 96.98C442.86 98.36 440.62 99.69 437.95 100.99C435.28 102.28 432.59 103.27 429.87 103.96C427.17 104.67 424.69 104.8 422.45 104.37Z" fill="white"/>
<path d="M471.16 92.61C470.38 92.01 469.85 91.4 469.54 90.8C469.24 90.2 469.22 89.04 469.48 87.31C469.74 84.9 470.08 82.77 470.51 80.91C470.94 79.06 471.46 76.93 472.06 74.51C472.23 73.48 472.73 71.71 473.55 69.21C474.37 66.71 475.38 64 476.59 61.07C477.8 58.14 479 55.36 480.21 52.74C481.42 50.11 482.45 48.15 483.31 46.86C484 46.34 484.84 46.13 485.83 46.21C486.82 46.3 487.66 46.68 488.35 47.37C489.3 48.14 489.45 49.5 488.8 51.44C488.15 53.38 486.84 56.41 484.86 60.55C483.83 62.88 483.05 64.62 482.53 65.78C482.01 66.94 481.8 67.63 481.88 67.85C481.96 68.07 482.35 67.96 483.04 67.53C483.56 66.58 484.5 65.49 485.88 64.24C487.26 62.99 488.72 61.77 490.27 60.56C491.82 59.35 493.28 58.28 494.66 57.33C496.04 56.38 496.99 55.78 497.5 55.52C498.19 55.09 498.99 54.72 499.89 54.42C500.79 54.12 501.42 53.88 501.76 53.71C503.74 52.76 505.76 52.42 507.83 52.68C509.9 52.94 511.19 53.71 511.71 55.01C511.79 55.7 512.31 56.39 513.26 57.08C513.6 57.08 513.82 57.34 513.91 57.86C513.91 58.46 513.46 58.83 512.55 58.96C511.65 59.09 510.5 59.2 509.13 59.28C508.01 59.37 507.02 59.58 506.16 59.93C505.3 60.27 504.26 60.71 503.06 61.22C499.79 63.12 496.66 64.97 493.69 66.78C490.72 68.59 487.85 71 485.1 74.02C484.5 74.71 483.89 75.53 483.29 76.47C482.69 77.42 482.04 78.45 481.35 79.57C480.92 80 480.49 80.95 480.06 82.41C479.63 83.88 479.26 85.28 478.96 86.61C478.66 87.95 478.51 88.74 478.51 89C477.99 90.64 477.43 91.84 476.83 92.62C475.8 94 474.93 94.69 474.25 94.69C473.57 94.68 472.53 93.99 471.16 92.61Z" fill="white"/>
<path d="M537.95 92.61C536.14 94.16 534.05 95.07 531.68 95.32C529.31 95.58 527.01 95.21 524.77 94.22C522.53 93.23 520.68 91.7 519.21 89.63C517.74 87.74 516.8 85.56 516.37 83.11C515.94 80.65 515.9 77.45 516.24 73.48C516.5 70.12 517.57 66.74 519.47 63.34C521.36 59.94 523.67 56.9 526.38 54.23C529.09 51.56 531.78 49.71 534.46 48.67C535.75 47.81 536.85 47.4 537.75 47.44C538.65 47.48 540.05 47.59 541.95 47.76C543.93 48.02 545.42 48.41 546.41 48.92C547.4 49.44 548.2 50.13 548.8 50.99C550.09 52.28 550.95 53.55 551.38 54.8C551.81 56.05 552.03 57.28 552.03 58.48C551.68 60.38 550.41 62.68 548.22 65.39C546.02 68.1 543.16 70.32 539.63 72.04C537.73 72.64 535.67 72.9 533.43 72.82C531.19 72.74 529.34 72.17 527.87 71.14C526.23 70.45 525.16 70.56 524.64 71.46C524.12 72.36 523.65 74.54 523.22 77.98C522.87 81.25 523.13 83.65 523.99 85.15C524.85 86.66 526.01 87.54 527.48 87.8C529.2 88.15 530.56 88.38 531.55 88.51C532.54 88.64 533.77 88.27 535.23 87.41C536.61 86.55 537.47 86.05 537.81 85.92C538.15 85.79 538.43 85.62 538.65 85.4C538.86 85.19 539.4 84.65 540.26 83.79C540.86 83.19 541.34 82.74 541.68 82.43C542.02 82.13 542.41 81.98 542.84 81.98C543.27 81.98 543.66 82.17 544 82.56C544.34 82.95 544.69 83.23 545.03 83.4C545.89 83.4 546.08 83.92 545.61 84.95C545.14 85.98 544.21 87.21 542.83 88.63C541.48 90.09 539.85 91.41 537.95 92.61ZM537.82 65.22C538.77 64.79 539.76 64.17 540.79 63.35C541.82 62.53 542.71 61.63 543.44 60.64C544.17 59.65 544.54 58.81 544.54 58.12C544.54 56.91 543.98 55.9 542.86 55.08C541.74 54.26 540.06 54.16 537.82 54.76C536.87 55.02 535.79 55.64 534.59 56.63C533.38 57.62 532.24 58.72 531.17 59.92C530.09 61.13 529.23 62.2 528.59 63.15C527.94 64.1 527.71 64.66 527.88 64.83C528.14 65.26 528.87 65.58 530.08 65.8C531.29 66.02 532.64 66.08 534.15 65.99C535.65 65.91 536.87 65.65 537.82 65.22Z" fill="white"/>
<path d="M568.18 93.39C567.49 93.56 566.59 93.63 565.47 93.58C564.35 93.54 563.38 93.41 562.56 93.19C561.74 92.98 561.33 92.74 561.33 92.48C561.33 92.05 561.11 91.83 560.68 91.83C559.9 91.14 559.13 90.62 558.35 90.28C557.57 89.07 557.19 87.76 557.19 86.34C557.19 84.92 557.58 82.66 558.35 79.56C558.61 77.41 559.45 74.89 560.87 72C562.29 69.12 564.04 66.17 566.1 63.15C568.17 60.14 570.34 57.42 572.62 55.01C574.9 52.6 576.99 50.83 578.89 49.71C580.1 48.5 581.56 47.86 583.28 47.77C585 47.69 586.64 48.07 588.19 48.93C589.05 49.36 589.91 50.05 590.77 51C591.63 51.95 592.45 52.98 593.23 54.1C594 55.22 594.65 56.34 595.17 57.46C595.43 58.41 595.58 59.25 595.62 59.98C595.66 60.71 595.66 61.6 595.62 62.63C595.58 63.66 595.43 65.21 595.17 67.28C594.74 68.83 594.37 70.73 594.07 72.96C593.77 75.2 593.62 77.14 593.62 78.77C593.45 80.41 593.64 81.57 594.2 82.26C594.76 82.95 595.6 82.99 596.72 82.39C597.75 81.87 598.74 81.64 599.69 81.68C600.64 81.72 601.39 82 601.95 82.52C602.51 83.04 602.79 83.81 602.79 84.85C602.79 85.88 602.29 86.94 601.3 88.02C600.31 89.1 599.1 90 597.68 90.73C596.26 91.46 594.9 91.83 593.61 91.83C592.66 91.83 591.76 91.25 590.9 90.09C590.04 88.93 589.28 87.51 588.64 85.83C587.99 84.15 587.41 82.54 586.9 80.99L586.12 78.02L580.56 83.32C579.44 84.53 578.34 85.63 577.27 86.61C576.19 87.6 575.53 88.31 575.27 88.74C574.84 89.52 574.04 90.29 572.88 91.07C571.74 91.84 570.16 92.61 568.18 93.39ZM568.57 85.76C570.03 84.9 571.71 83.63 573.61 81.95C575.5 80.27 577.36 78.42 579.17 76.39C580.98 74.37 582.48 72.49 583.69 70.77C585.15 68.79 586.27 66.94 587.05 65.21C587.83 63.49 588.38 61.85 588.73 60.3C588.39 59.35 587.83 58.34 587.05 57.26C586.27 56.18 585.58 55.6 584.98 55.52C583.08 55.52 581.08 56.7 578.97 59.07C576.86 61.44 574.81 64 572.83 66.76C572.48 67.19 572.01 67.88 571.41 68.83C570.81 69.78 570.22 70.66 569.67 71.48C569.11 72.3 568.74 72.84 568.57 73.1C568.31 73.44 567.82 74.41 567.08 76.01C566.35 77.61 565.64 79.2 564.95 80.79C564.26 82.38 563.92 83.44 563.92 83.96C563.92 84.48 563.98 85.04 564.11 85.64C564.24 86.24 564.65 86.63 565.34 86.8C566.03 86.97 567.11 86.63 568.57 85.76Z" fill="white"/>
<path d="M625.16 96.88C623.95 96.54 622.96 96.13 622.19 95.65C621.41 95.18 620.38 94.38 619.09 93.26C618.06 91.88 617.26 90.59 616.7 89.38C616.14 88.17 615.77 86.78 615.6 85.18C615.43 83.59 615.34 81.54 615.34 79.04C615.34 78.01 615.53 76.46 615.92 74.39C616.31 72.32 616.78 70.15 617.34 67.86C617.9 65.58 618.42 63.53 618.89 61.72C619.36 59.91 619.64 58.75 619.73 58.23C619.99 57.11 619.56 56.47 618.44 56.29C617.32 56.12 616.09 56.05 614.76 56.1C613.42 56.14 612.54 56.04 612.11 55.78C611.76 55.7 611.59 55.44 611.59 55C611.59 54.66 611.57 54.42 611.53 54.29C611.49 54.16 611.34 53.88 611.08 53.45C610.91 53.11 611.02 52.61 611.4 51.96C611.79 51.31 612.45 50.91 613.4 50.73C614.17 50.56 615.23 50.41 616.57 50.28C617.9 50.15 619.26 49.85 620.64 49.38C622.02 48.91 623.14 48.15 624 47.12C624.78 45.23 625.68 43.12 626.71 40.79C627.75 38.46 628.76 36.38 629.75 34.52C630.74 32.67 631.41 31.53 631.75 31.1C633.21 30.32 634.29 30 634.98 30.13C635.67 30.26 636.44 31.01 637.31 32.39C637.74 32.99 638.06 33.47 638.28 33.81C638.49 34.15 638.52 34.67 638.34 35.36C638.17 36.05 637.71 37.13 636.98 38.59C636.25 40.06 635.15 42.17 633.69 44.92C633.26 45.78 632.7 46.86 632.01 48.15C632.35 48.24 632.87 48.28 633.56 48.28C634.25 48.28 635.11 48.24 636.15 48.15C637.1 47.98 638.3 47.83 639.77 47.7C641.23 47.57 642.4 47.59 643.26 47.77C645.24 47.77 646.7 48.14 647.65 48.87C648.6 49.6 649.11 50.83 649.2 52.55C649.37 53.5 649.18 54.06 648.62 54.23C648.06 54.4 646.62 54.49 644.29 54.49C643.51 54.49 642.31 54.53 640.67 54.62C639.03 54.71 637.33 54.79 635.57 54.88C633.8 54.97 632.29 55.07 631.05 55.2C629.8 55.33 629.17 55.48 629.17 55.65C628.91 55.82 628.5 56.64 627.94 58.11C627.38 59.57 626.82 61.23 626.26 63.08C625.7 64.93 625.2 66.59 624.77 68.05C624.17 70.98 623.72 73.91 623.41 76.84C623.11 79.77 623.04 82.31 623.21 84.46C623.38 86.61 623.86 88.12 624.63 88.98C625.41 89.76 626.91 89.91 629.15 89.43C631.39 88.96 633.2 88.16 634.58 87.04C636.13 85.75 637.4 85.1 638.39 85.1C639.38 85.1 639.94 85.55 640.07 86.46C640.2 87.37 639.7 88.64 638.58 90.27C637.55 91.82 636.26 93.18 634.7 94.34C633.15 95.5 631.53 96.32 629.85 96.8C628.17 97.28 626.62 97.31 625.16 96.88Z" fill="white"/>
<path d="M654.23 90.8C653.88 90.8 653.24 90.59 652.29 90.15C652.29 89.81 652.18 89.38 651.97 88.86C651.75 88.34 651.65 87.91 651.65 87.57C651.05 87.23 650.7 86.86 650.62 86.47C650.53 86.08 650.66 85.42 651.01 84.47C651.53 83.61 652.22 82.21 653.08 80.27C653.94 78.33 654.84 76.22 655.79 73.94C656.74 71.66 657.64 69.4 658.5 67.16C659.36 64.92 660.09 63 660.7 61.41C661.3 59.82 661.65 58.85 661.73 58.5C661.73 58.16 661.86 57.72 662.12 57.21C662.38 56.69 662.68 56.26 663.02 55.92C663.71 55.32 664.44 55.25 665.22 55.73C665.99 56.2 666.66 56.98 667.22 58.06C667.78 59.14 668.06 60.32 668.06 61.61C668.06 62.21 667.63 63.74 666.77 66.2C665.91 68.65 664.77 71.56 663.35 74.92C661.93 78.28 660.36 81.68 658.63 85.13C657.34 87.63 656.52 89.2 656.17 89.85C655.82 90.48 655.18 90.8 654.23 90.8ZM673.22 41.84C672.19 41.84 671.09 41.43 669.93 40.61C668.77 39.79 667.78 38.76 666.96 37.51C666.14 36.26 665.73 34.99 665.73 33.7C665.73 33.27 665.99 32.67 666.51 31.89C667.03 31.12 667.54 30.34 668.06 29.56C668.58 28.78 668.84 28.31 668.84 28.14C669.53 28.14 670.07 28.16 670.46 28.2C670.85 28.24 671.34 28.44 671.95 28.78C672.9 30.93 674.08 32.7 675.5 34.08C676.92 35.46 677.63 36.62 677.63 37.57C677.63 39.47 677.46 40.65 677.11 41.12C676.75 41.6 675.46 41.84 673.22 41.84Z" fill="white"/>
<path d="M689.37 93C688.68 93.09 687.71 92.7 686.46 91.84C685.21 90.98 684.07 89.99 683.04 88.87C682.44 87.92 681.88 86.5 681.36 84.61C680.84 82.72 680.46 80.61 680.2 78.28C679.94 75.95 679.81 73.72 679.81 71.56C679.89 69.41 680.13 67.02 680.52 64.39C680.91 61.76 681.3 59.33 681.68 57.09C682.07 54.85 682.35 53.34 682.52 52.57C683.29 51.71 684.05 51.11 684.78 50.76C685.51 50.42 686.18 50.33 686.78 50.5C687.38 50.67 687.94 51.15 688.46 51.92C689.67 52.52 690.25 53.47 690.2 54.76C690.16 56.05 689.75 57.56 688.97 59.28C688.97 59.71 688.88 60.29 688.71 61.02C688.54 61.75 688.37 62.42 688.19 63.02C687.5 64.23 687.11 65.3 687.03 66.25C687.03 67.11 687.16 68.1 687.42 69.22C687.68 70.34 687.46 71.37 686.77 72.32V72.2C686.68 72.8 686.66 73.84 686.7 75.3C686.74 76.77 686.87 78.21 687.09 79.63C687.3 81.05 687.63 82.06 688.06 82.67C688.14 83.45 688.6 83.81 689.42 83.77C690.24 83.73 691.29 83.15 692.59 82.02C693.62 80.99 694.81 79.69 696.14 78.14C697.47 76.59 698.72 75 699.89 73.36C701.05 71.73 702 70.3 702.73 69.1C703.46 67.89 703.74 67.12 703.57 66.77C703.22 66.08 703.42 65.5 704.15 65.03C704.88 64.56 705.51 64.11 706.02 63.67C706.45 63.15 706.71 62.62 706.8 62.05C706.88 61.49 707.1 60.91 707.45 60.31C707.88 59.88 708.23 59.28 708.48 58.5C708.22 57.9 708.42 57.36 709.06 56.88C709.71 56.41 710.11 55.91 710.29 55.39C710.46 54.53 710.79 53.93 711.26 53.58C711.73 53.24 712.27 53.13 712.87 53.26C713.47 53.39 714.01 53.69 714.49 54.16C714.96 54.63 715.24 55.3 715.33 56.16C715.33 57.19 714.96 58.7 714.23 60.68C713.5 62.66 712.57 64.77 711.45 67.01C710.33 69.25 709.12 71.27 707.83 73.08C707.4 73.77 707.01 74.46 706.67 75.15C706.32 75.84 705.79 76.75 705.05 77.86C704.32 78.98 703.09 80.62 701.37 82.77C700.68 83.46 699.99 84.17 699.3 84.9C698.61 85.63 697.92 86.3 697.23 86.9C695.59 88.8 694.17 90.26 692.97 91.29C691.78 92.35 690.58 92.91 689.37 93Z" fill="white"/>
<path d="M741.44 92.61C739.63 94.16 737.54 95.07 735.17 95.32C732.8 95.58 730.5 95.21 728.26 94.22C726.02 93.23 724.17 91.7 722.71 89.63C721.24 87.74 720.3 85.56 719.87 83.11C719.44 80.65 719.4 77.45 719.74 73.48C720 70.12 721.07 66.74 722.97 63.34C724.86 59.94 727.17 56.9 729.88 54.23C732.59 51.56 735.28 49.71 737.96 48.67C739.25 47.81 740.35 47.4 741.25 47.44C742.15 47.48 743.55 47.59 745.45 47.76C747.43 48.02 748.92 48.41 749.91 48.92C750.9 49.44 751.7 50.13 752.3 50.99C753.59 52.28 754.45 53.55 754.88 54.8C755.31 56.05 755.53 57.28 755.53 58.48C755.19 60.38 753.91 62.68 751.72 65.39C749.52 68.1 746.66 70.32 743.13 72.04C741.23 72.64 739.17 72.9 736.93 72.82C734.69 72.74 732.84 72.17 731.37 71.14C729.73 70.45 728.66 70.56 728.14 71.46C727.62 72.36 727.15 74.54 726.72 77.98C726.37 81.25 726.63 83.65 727.5 85.15C728.36 86.66 729.52 87.54 730.99 87.8C732.71 88.15 734.07 88.38 735.06 88.51C736.05 88.64 737.28 88.27 738.74 87.41C740.12 86.55 740.98 86.05 741.32 85.92C741.66 85.79 741.94 85.62 742.16 85.4C742.37 85.19 742.91 84.65 743.78 83.79C744.38 83.19 744.86 82.74 745.2 82.43C745.54 82.13 745.93 81.98 746.36 81.98C746.79 81.98 747.18 82.17 747.52 82.56C747.86 82.95 748.21 83.23 748.55 83.4C749.41 83.4 749.6 83.92 749.13 84.95C748.66 85.98 747.73 87.21 746.35 88.63C744.97 90.09 743.33 91.41 741.44 92.61ZM741.31 65.22C742.26 64.79 743.25 64.17 744.28 63.35C745.31 62.53 746.2 61.63 746.93 60.64C747.66 59.65 748.03 58.81 748.03 58.12C748.03 56.91 747.47 55.9 746.35 55.08C745.23 54.26 743.55 54.16 741.31 54.76C740.36 55.02 739.29 55.64 738.08 56.63C736.87 57.62 735.73 58.72 734.66 59.92C733.58 61.13 732.72 62.2 732.08 63.15C731.43 64.1 731.2 64.66 731.37 64.83C731.63 65.26 732.36 65.58 733.57 65.8C734.78 66.02 736.13 66.08 737.64 65.99C739.13 65.91 740.36 65.65 741.31 65.22Z" fill="white"/>
<path d="M803.84 101.14C803.24 100.19 801.88 99.59 799.77 99.33C797.66 99.07 795.1 99.03 792.08 99.2C790.87 99.37 789.71 99.31 788.59 99.01C787.47 98.71 786.59 98.23 785.94 97.59C785.29 96.94 785.06 96.28 785.23 95.59C785.31 94.56 786.2 93.74 787.88 93.13C789.56 92.53 792.25 92.18 795.96 92.1L802.81 91.97L804.1 89.39C804.44 88.44 804.87 87.11 805.39 85.38C805.91 83.66 806.47 81.81 807.07 79.82C807.41 78.61 807.93 76.98 808.62 74.91C809.31 72.84 810.04 70.65 810.82 68.32C811.6 65.99 812.28 63.91 812.89 62.05C813.49 60.2 813.88 58.88 814.05 58.11C814.39 57.33 814.87 56.02 815.47 54.17C816.07 52.32 816.65 50.42 817.21 48.49C817.77 46.55 818.13 45.15 818.31 44.29C820.55 37.49 822.01 32.64 822.7 29.75C823.39 26.87 823.56 25.38 823.22 25.29C822.88 25.29 822.04 25.33 820.7 25.42C819.36 25.51 817.9 25.61 816.31 25.74C814.72 25.87 813.29 26.02 812.05 26.19C810.8 26.36 810.05 26.54 809.79 26.71C809.36 27.31 808.63 27.44 807.59 27.1C806.56 26.76 805.91 26.15 805.65 25.29C805.56 24.51 805.54 23.91 805.59 23.48C805.63 23.05 805.87 22.7 806.3 22.45C806.9 21.93 808.06 21.35 809.79 20.71C811.51 20.06 813.47 19.48 815.67 18.97C817.87 18.45 819.95 18.07 821.94 17.81C823.4 17.64 824.87 17.31 826.33 16.84C827.79 16.37 828.96 15.79 829.82 15.1C830.59 14.84 831.35 14.63 832.08 14.45C832.81 14.28 833.57 14.24 834.34 14.32C835.03 14.75 836.21 14.97 837.89 14.97C839.57 14.97 841.36 14.93 843.25 14.84C848.07 14.41 851.33 14.28 853 14.45C854.68 14.62 855.82 15.31 856.42 16.52C856.85 18.16 856.94 19.43 856.68 20.33C856.42 21.24 855.56 21.64 854.1 21.56C853.32 21.73 851.92 21.88 849.9 22.01C847.88 22.14 845.74 22.25 843.51 22.33C837.39 22.85 834.12 23.45 833.69 24.14C833.34 24.49 833.06 24.83 832.85 25.17C832.63 25.51 832.35 25.9 832.01 26.33C832.09 26.68 831.9 27.77 831.43 29.62C830.96 31.47 830.37 33.35 829.69 35.24C829.35 36.36 828.83 37.95 828.14 40.02C827.45 42.09 826.74 44.22 826.01 46.42C825.28 48.62 824.61 50.6 824.01 52.36C823.41 54.13 822.98 55.31 822.72 55.91C822.37 56.68 822.09 57.52 821.88 58.43C821.66 59.34 821.51 60 821.43 60.43C820.22 64.65 819.17 68.23 818.26 71.15C817.35 74.08 816.54 76.64 815.8 78.84C815.07 81.04 814.4 83.15 813.8 85.17C813.2 87.19 812.55 89.41 811.86 91.82C814.53 91.56 816.98 91.35 819.22 91.17C823.27 90.74 826.17 90.48 827.94 90.39C829.7 90.31 830.89 90.41 831.49 90.71C832.09 91.01 832.52 91.55 832.78 92.33C834.5 94.66 834.72 96.25 833.43 97.11C832.14 97.97 829.08 98.36 824.26 98.27C819.78 98.44 816.36 98.59 813.99 98.72C811.62 98.85 809.98 99.04 809.08 99.3C808.18 99.56 807.64 99.99 807.46 100.59C807.46 101.28 807.12 101.62 806.43 101.62C805.73 101.66 804.87 101.48 803.84 101.14Z" fill="white"/>
<path d="M876.19 99.59C875.07 99.85 874.14 99.7 873.41 99.14C872.68 98.58 872.14 97.78 871.79 96.75C871.1 94.77 870.6 92.6 870.3 90.23C870 87.86 869.93 85.77 870.11 83.96L870.37 81.25L865.33 85.25C862.4 87.83 859.58 89.69 856.87 90.81C854.16 91.93 851.77 92.49 849.7 92.49C848.75 92.32 847.8 91.97 846.86 91.46C845.91 90.94 845.07 90.3 844.34 89.52C843.61 88.74 843.03 87.93 842.6 87.06C842.08 85.85 841.93 84.22 842.15 82.15C842.36 80.08 842.88 77.82 843.7 75.37C844.52 72.91 845.55 70.5 846.8 68.13C848.05 65.76 849.49 63.67 851.13 61.86C853.97 57.55 857.03 54.93 860.3 53.98C863.57 53.03 866.8 53.51 869.99 55.4C872.23 56.35 873.63 56.78 874.19 56.69C874.75 56.61 875.24 55.61 875.68 53.72C876.02 52.34 876.37 50.94 876.71 49.52C877.05 48.1 877.62 46.18 878.39 43.77C880.54 37.23 882.42 32.1 884.01 28.39C885.6 24.69 887.05 21.46 888.34 18.7C889.29 16.72 890.08 15.49 890.73 15.02C891.38 14.55 892.04 14.35 892.73 14.44C893.68 14.44 894.54 14.78 895.31 15.47C896.09 16.16 896.69 17.11 897.12 18.31C897.46 19.09 897.62 19.75 897.57 20.31C897.53 20.87 897.25 21.62 896.73 22.57C895.61 24.64 894.3 27.37 892.79 30.77C891.28 34.17 889.77 37.9 888.27 41.95C886.76 46 885.36 50 884.07 53.97C882.78 57.93 881.7 61.42 880.84 64.43C880.32 66.33 879.87 68.74 879.48 71.67C879.09 74.6 878.77 77.59 878.51 80.65C878.25 83.71 878.1 86.42 878.06 88.79C878.02 91.16 878.08 92.69 878.25 93.38C878.77 95.1 879 96.4 878.96 97.26C878.92 98.12 878.68 98.7 878.25 99C877.83 99.31 877.14 99.5 876.19 99.59ZM854.36 85.25C855.57 84.99 856.75 84.52 857.91 83.83C859.07 83.14 860.3 82.32 861.59 81.37C864.17 79.39 866.41 77.58 868.31 75.94C870.2 74.31 871.45 71.81 872.06 68.45C872.23 66.81 872.08 65.5 871.61 64.51C871.14 63.52 870.38 62.59 869.35 61.73C868.32 61.04 866.92 60.76 865.15 60.89C863.38 61.02 861.55 61.95 859.66 63.67C857.59 65.57 855.59 68.11 853.65 71.29C851.71 74.48 850.27 78.4 849.32 83.05C849.15 83.91 849.4 84.6 850.1 85.12C850.78 85.64 852.2 85.68 854.36 85.25Z" fill="white"/>
<path d="M905.52 97.52C901.73 97.52 898.63 96.08 896.22 93.19C893.81 90.31 892.64 86.71 892.73 82.4C892.9 79.3 893.53 75.96 894.6 72.39C895.68 68.82 897.12 65.37 898.93 62.05C900.74 58.73 902.72 55.83 904.87 53.33C907.02 50.83 909.26 49.07 911.59 48.03C912.45 47.6 913.38 47.25 914.37 47C915.36 46.74 916.37 46.61 917.41 46.61C918.36 46.61 919.35 46.76 920.38 47.06C921.41 47.36 922.27 47.69 922.96 48.03C924.42 48.63 925.54 49.37 926.32 50.23C927.1 51.09 927.78 52.43 928.39 54.24C928.65 55.88 928.78 57.04 928.78 57.73C928.78 58.42 928.56 59.45 928.13 60.83C927.1 63.93 925.76 66.6 924.13 68.84C922.49 71.08 920.3 72.97 917.54 74.52C916.85 74.95 916.05 75.27 915.15 75.49C914.24 75.71 913.32 75.81 912.37 75.81C910.65 75.81 908.99 75.49 907.4 74.84C905.81 74.19 904.54 73.22 903.59 71.93L902.68 70.9L902.29 71.93C901.43 74.26 900.76 76.41 900.29 78.39C899.82 80.37 899.58 82.18 899.58 83.82C899.58 84.85 899.69 85.84 899.9 86.79C900.11 87.74 900.44 88.56 900.87 89.24C901.21 89.76 901.79 90.12 902.61 90.34C903.43 90.56 904.31 90.66 905.26 90.66C905.86 90.66 906.49 90.64 907.13 90.6C907.78 90.56 908.4 90.41 909 90.15C910.46 89.63 911.65 89.07 912.55 88.47C913.45 87.87 914.38 87.22 915.33 86.53L915.85 86.27H915.72C916.75 85.75 918.09 84.98 919.72 83.94C920.06 83.94 920.41 83.73 920.75 83.29C921.44 82.95 922.32 83.08 923.4 83.68C924.48 84.28 925.02 85.06 925.02 86.01C924.93 86.44 924.55 87.11 923.86 88.01C923.17 88.92 922.42 89.76 921.6 90.53C920.78 91.31 920.11 91.74 919.6 91.82C919.51 91.91 919.21 92.06 918.7 92.27C918.18 92.49 917.84 92.68 917.67 92.85H917.8C917.02 93.88 916.25 94.4 915.47 94.4H914.44C914.09 95 912.97 95.67 911.08 96.4C909.18 97.15 907.33 97.52 905.52 97.52ZM911.34 69.1C912.89 69.1 914.25 68.65 915.41 67.74C916.57 66.83 917.58 65.82 918.45 64.7C920.17 62.37 921.18 60.11 921.49 57.92C921.79 55.72 921.51 54.2 920.65 53.33C920.13 53.07 919.68 52.92 919.29 52.88C918.9 52.84 918.15 52.99 917.03 53.33C916.25 53.5 915.18 54.15 913.8 55.27C912.42 56.39 911.06 57.64 909.73 59.02C908.39 60.4 907.38 61.56 906.69 62.51L905 65.22C905.69 64.96 906.36 64.81 907 64.77C907.65 64.73 908.01 64.79 908.1 64.96C908.1 65.73 908.25 66.45 908.55 67.09C908.85 67.74 909.24 68.23 909.71 68.58C910.19 68.93 910.73 69.1 911.34 69.1Z" fill="white"/>
<path d="M943.12 92.87C942.09 93.04 940.97 92.87 939.76 92.35C938.55 91.83 937.5 91.1 936.59 90.15C935.69 89.2 935.1 88.21 934.85 87.18C934.5 85.37 934.74 83.11 935.56 80.4C936.38 77.69 937.58 74.8 939.18 71.74C940.77 68.68 942.58 65.73 944.61 62.89C946.63 60.05 948.74 57.57 950.94 55.46C953.14 53.35 955.18 51.91 957.08 51.13C958.03 50.53 958.78 50.12 959.34 49.9C959.9 49.69 960.5 49.66 961.15 49.84C961.8 50.01 962.77 50.44 964.06 51.13C965.27 51.48 966.17 51.86 966.77 52.29C967.37 52.72 968.15 53.58 969.1 54.87C969.79 56.16 970.31 57.45 970.65 58.75C970.99 60.04 971.3 61.51 971.55 63.14C972.24 65.29 972.5 66.69 972.33 67.34C972.16 67.99 971.9 68.48 971.55 68.83C970.86 69.69 970.69 70.12 971.03 70.12C970.94 70.72 970.73 71.33 970.38 71.93C969.78 73.83 969.32 75.79 969.02 77.81C968.72 79.83 968.74 81.49 969.09 82.78C969.78 84.68 971.03 85.8 972.84 86.14C974.65 86.49 976.5 85.71 978.4 83.81C979.35 83.12 980.25 82.5 981.11 81.94C981.97 81.38 982.4 81.45 982.4 82.13C982.92 82.56 983.35 82.78 983.69 82.78C984.12 82.78 984.4 82.95 984.53 83.3C984.66 83.65 984.66 84.1 984.53 84.66C984.4 85.22 984.12 85.84 983.69 86.53C982.4 87.82 981.75 88.68 981.75 89.11C981.15 89.71 980.5 90.32 979.81 90.92C978.26 91.87 976.3 92.34 973.93 92.34C971.56 92.34 969.73 91.87 968.44 90.92C967.15 89.97 965.96 88.68 964.89 87.04C963.81 85.41 963.1 83.98 962.76 82.78L962.11 81.49L958.36 83.95C957.41 84.9 956.4 85.8 955.32 86.66C954.24 87.52 953.53 88.13 953.19 88.47C952.93 88.81 952.65 89.12 952.35 89.37C952.05 89.63 951.72 89.76 951.38 89.76C951.04 89.76 950.6 89.76 950.09 89.76C950.09 90.1 949.68 90.53 948.86 91.05C948.04 91.57 947.09 92 946.02 92.34C944.95 92.7 943.98 92.87 943.12 92.87ZM944.6 84.67C945.93 83.85 947.44 82.88 949.12 81.76C950.8 80.64 952.31 79.52 953.64 78.4C954.97 77.28 955.9 76.42 956.42 75.82C956.76 75.48 957.32 74.9 958.1 74.08C958.88 73.26 959.56 72.55 960.17 71.95C962.15 69.71 963.53 67.23 964.3 64.52C965.08 61.81 964.99 59.67 964.04 58.12C963.69 57.17 963.26 56.66 962.75 56.57C962.23 56.49 961.16 56.79 959.52 57.47C958.49 58.07 957.21 59.21 955.71 60.89C954.2 62.57 952.61 64.51 950.93 66.7C949.25 68.89 947.68 71.16 946.21 73.48C944.74 75.81 943.54 77.96 942.59 79.94C941.64 81.92 941.17 83.47 941.17 84.59C941.17 84.94 941.38 85.37 941.82 85.88C942.34 85.89 943.27 85.49 944.6 84.67Z" fill="white"/>
<path d="M1000.35 95.97C998.2 96.14 996.15 96.01 994.21 95.58C992.27 95.15 990.63 94.4 989.3 93.32C987.96 92.24 987.04 90.93 986.52 89.38C985.92 88.17 985.61 87.34 985.61 86.86C985.61 86.39 985.91 85.98 986.52 85.63C987.21 85.63 987.83 85.82 988.39 86.21C988.95 86.6 989.7 87.01 990.65 87.44C991.94 88.56 993.51 89.16 995.37 89.25C997.22 89.34 998.92 89.04 1000.47 88.35C1002.02 87.66 1002.88 86.8 1003.05 85.77C1003.05 85.43 1002.92 84.82 1002.66 83.96C1002.4 83.1 1002.1 82.2 1001.76 81.25C999.43 77.98 997.73 74.72 996.66 71.5C995.58 68.27 995.04 65.62 995.04 63.55C995.04 62 995.51 60.34 996.46 58.58C997.41 56.82 998.7 55.33 1000.34 54.12C1001.89 52.49 1003.61 51.02 1005.51 49.73C1007.4 48.44 1009.32 47.32 1011.26 46.37C1013.2 45.42 1014.94 44.74 1016.49 44.3C1017.44 44.3 1018.69 44.43 1020.24 44.69C1021.79 44.95 1022.87 45.25 1023.47 45.59C1024.42 45.94 1025.32 46.86 1026.18 48.37C1027.04 49.88 1027.47 51.36 1027.47 52.83C1027.47 53.43 1027.3 54.21 1026.95 55.16C1026.6 56.11 1026.05 57.23 1025.27 58.52C1024.93 59.47 1024.54 60.35 1024.11 61.17C1023.68 61.99 1023.46 62.57 1023.46 62.91C1023.03 63.86 1022.45 64.31 1021.72 64.27C1020.99 64.23 1020.25 63.84 1019.52 63.11C1018.79 62.38 1018.21 61.49 1017.78 60.46C1017.43 59.17 1017.31 58.11 1017.39 57.29C1017.47 56.47 1017.82 55.59 1018.42 54.64C1019.37 53.69 1019.84 53.05 1019.84 52.7C1019.84 52.36 1019.37 52.18 1018.42 52.18C1017.82 52.18 1016.72 52.55 1015.13 53.28C1013.54 54.01 1011.86 54.96 1010.09 56.12C1008.32 57.28 1006.8 58.51 1005.5 59.8C1003.86 61.35 1002.89 62.47 1002.59 63.16C1002.29 63.85 1002.14 64.93 1002.14 66.39C1002.14 67.6 1002.42 69.1 1002.98 70.91C1003.54 72.72 1004.12 73.93 1004.72 74.53C1005.93 76.86 1006.96 78.66 1007.82 79.96C1010.32 85.47 1010.96 89.44 1009.76 91.85C1008.58 94.25 1005.43 95.63 1000.35 95.97Z" fill="white"/>
</g>
<defs>
<linearGradient id="paint0_linear_13_97" x1="267.423" y1="171.912" x2="1109.44" y2="171.912" gradientUnits="userSpaceOnUse">
<stop stop-color="#E70AF9"/>
<stop offset="0.2649" stop-color="#BD1AE8"/>
<stop offset="0.4888" stop-color="#9729D8"/>
<stop offset="1" stop-color="#3452B4"/>
</linearGradient>
<linearGradient id="paint1_linear_13_97" x1="267.424" y1="171.912" x2="1109.44" y2="171.912" gradientUnits="userSpaceOnUse">
<stop stop-color="#E70AF9"/>
<stop offset="0.2649" stop-color="#BD1AE8"/>
<stop offset="0.4888" stop-color="#9729D8"/>
<stop offset="1" stop-color="#3452B4"/>
</linearGradient>
<linearGradient id="paint2_linear_13_97" x1="267.424" y1="171.912" x2="1109.44" y2="171.912" gradientUnits="userSpaceOnUse">
<stop stop-color="#E70AF9"/>
<stop offset="0.2649" stop-color="#BD1AE8"/>
<stop offset="0.4888" stop-color="#9729D8"/>
<stop offset="1" stop-color="#3452B4"/>
</linearGradient>
<linearGradient id="paint3_linear_13_97" x1="267.423" y1="171.912" x2="1109.44" y2="171.912" gradientUnits="userSpaceOnUse">
<stop stop-color="#E70AF9"/>
<stop offset="0.2649" stop-color="#BD1AE8"/>
<stop offset="0.4888" stop-color="#9729D8"/>
<stop offset="1" stop-color="#3452B4"/>
</linearGradient>
<linearGradient id="paint4_linear_13_97" x1="267.423" y1="171.912" x2="1109.44" y2="171.912" gradientUnits="userSpaceOnUse">
<stop stop-color="#E70AF9"/>
<stop offset="0.2649" stop-color="#BD1AE8"/>
<stop offset="0.4888" stop-color="#9729D8"/>
<stop offset="1" stop-color="#3452B4"/>
</linearGradient>
<linearGradient id="paint5_linear_13_97" x1="267.423" y1="171.795" x2="1109.44" y2="171.795" gradientUnits="userSpaceOnUse">
<stop stop-color="#E70AF9"/>
<stop offset="0.2649" stop-color="#BD1AE8"/>
<stop offset="0.4888" stop-color="#9729D8"/>
<stop offset="1" stop-color="#3452B4"/>
</linearGradient>
<linearGradient id="paint6_linear_13_97" x1="267.424" y1="171.912" x2="1109.44" y2="171.912" gradientUnits="userSpaceOnUse">
<stop stop-color="#E70AF9"/>
<stop offset="0.2649" stop-color="#BD1AE8"/>
<stop offset="0.4888" stop-color="#9729D8"/>
<stop offset="1" stop-color="#3452B4"/>
</linearGradient>
<linearGradient id="paint7_linear_13_97" x1="267.424" y1="171.912" x2="1109.44" y2="171.912" gradientUnits="userSpaceOnUse">
<stop stop-color="#E70AF9"/>
<stop offset="0.2649" stop-color="#BD1AE8"/>
<stop offset="0.4888" stop-color="#9729D8"/>
<stop offset="1" stop-color="#3452B4"/>
</linearGradient>
<linearGradient id="paint8_linear_13_97" x1="267.423" y1="171.912" x2="1109.44" y2="171.912" gradientUnits="userSpaceOnUse">
<stop stop-color="#E70AF9"/>
<stop offset="0.2649" stop-color="#BD1AE8"/>
<stop offset="0.4888" stop-color="#9729D8"/>
<stop offset="1" stop-color="#3452B4"/>
</linearGradient>
<linearGradient id="paint9_linear_13_97" x1="267.424" y1="171.912" x2="1109.44" y2="171.912" gradientUnits="userSpaceOnUse">
<stop stop-color="#E70AF9"/>
<stop offset="0.2649" stop-color="#BD1AE8"/>
<stop offset="0.4888" stop-color="#9729D8"/>
<stop offset="1" stop-color="#3452B4"/>
</linearGradient>
<linearGradient id="paint10_linear_13_97" x1="267.424" y1="171.795" x2="1109.44" y2="171.795" gradientUnits="userSpaceOnUse">
<stop stop-color="#E70AF9"/>
<stop offset="0.2649" stop-color="#BD1AE8"/>
<stop offset="0.4888" stop-color="#9729D8"/>
<stop offset="1" stop-color="#3452B4"/>
</linearGradient>
<linearGradient id="paint11_linear_13_97" x1="267.423" y1="172.186" x2="1109.44" y2="172.186" gradientUnits="userSpaceOnUse">
<stop stop-color="#E70AF9"/>
<stop offset="0.2649" stop-color="#BD1AE8"/>
<stop offset="0.4888" stop-color="#9729D8"/>
<stop offset="1" stop-color="#3452B4"/>
</linearGradient>
<linearGradient id="paint12_linear_13_97" x1="267.423" y1="171.912" x2="1109.44" y2="171.912" gradientUnits="userSpaceOnUse">
<stop stop-color="#E70AF9"/>
<stop offset="0.2649" stop-color="#BD1AE8"/>
<stop offset="0.4888" stop-color="#9729D8"/>
<stop offset="1" stop-color="#3452B4"/>
</linearGradient>
<linearGradient id="paint13_linear_13_97" x1="267.423" y1="171.912" x2="1109.44" y2="171.912" gradientUnits="userSpaceOnUse">
<stop stop-color="#E70AF9"/>
<stop offset="0.2649" stop-color="#BD1AE8"/>
<stop offset="0.4888" stop-color="#9729D8"/>
<stop offset="1" stop-color="#3452B4"/>
</linearGradient>
<linearGradient id="paint14_linear_13_97" x1="267.423" y1="171.794" x2="1109.44" y2="171.794" gradientUnits="userSpaceOnUse">
<stop stop-color="#E70AF9"/>
<stop offset="0.2649" stop-color="#BD1AE8"/>
<stop offset="0.4888" stop-color="#9729D8"/>
<stop offset="1" stop-color="#3452B4"/>
</linearGradient>
<linearGradient id="paint15_linear_13_97" x1="267.423" y1="171.912" x2="1109.44" y2="171.912" gradientUnits="userSpaceOnUse">
<stop stop-color="#E70AF9"/>
<stop offset="0.2649" stop-color="#BD1AE8"/>
<stop offset="0.4888" stop-color="#9729D8"/>
<stop offset="1" stop-color="#3452B4"/>
</linearGradient>
<linearGradient id="paint16_linear_13_97" x1="267.425" y1="171.794" x2="1109.44" y2="171.794" gradientUnits="userSpaceOnUse">
<stop stop-color="#E70AF9"/>
<stop offset="0.2649" stop-color="#BD1AE8"/>
<stop offset="0.4888" stop-color="#9729D8"/>
<stop offset="1" stop-color="#3452B4"/>
</linearGradient>
<clipPath id="clip0_13_97">
<rect width="1177.68" height="225.63" fill="white"/>
</clipPath>
</defs>
</svg>
